<svg width="566" height="566" viewBox="0 0 566 566" fill="none" xmlns="http://www.w3.org/2000/svg">
<path d="M57.732 273.084L132.999 265.103L124.78 191.987L49.4797 199.232L50.4985 204.892L52.7625 204.088C54.2454 204.02 54.9133 204.983 55.1284 206.454C55.1229 206.484 55.1229 206.515 55.1284 206.545C55.2982 208.039 54.9473 209.431 53.4757 209.748L50.6457 209.578L51.223 214.718C51.223 214.718 56.2151 213.586 56.4528 216.755C56.4528 216.755 56.2264 219.699 51.7437 219.382L52.2192 223.661C52.2192 223.661 57.2113 222.302 57.4943 225.596C57.732 228.392 54.8228 228.607 52.7852 228.687L53.2946 233.215C53.2946 233.215 58.264 232.185 58.1961 235.569C58.1282 238.954 53.8719 238.309 53.8719 238.309L54.5171 244.071C54.5171 244.071 59.113 242.056 59.4979 245.497C59.8828 248.938 56.1812 248.678 54.9699 248.406L55.4567 252.787C55.4567 252.787 60.1545 250.772 60.3696 255.187C60.528 258.504 55.9548 257.145 55.9548 257.145L56.634 263.247C56.634 263.247 61.2412 261.288 61.6034 264.571C61.8638 266.903 59.0451 267.967 57.0754 266.903L57.732 273.084Z" fill="#F5F5F5"/>
<path d="M114.269 186.666L69.1435 188.305L69.5921 200.658L114.718 199.019L114.269 186.666Z" fill="#E0E0E0"/>
<path d="M115.6 211.209C114.989 211.341 114.368 211.421 113.743 211.446L108.672 211.854C104.393 212.171 98.484 212.567 91.9524 212.986C85.4207 213.405 79.5004 213.722 75.2101 213.937L70.1274 214.152C69.51 214.211 68.8883 214.211 68.2709 214.152C68.8798 214.033 69.4964 213.957 70.1161 213.925L75.1874 213.518C79.4664 213.201 85.3754 212.805 91.9184 212.386C98.4614 211.967 104.37 211.65 108.649 211.435L113.732 211.22C114.353 211.169 114.978 211.166 115.6 211.209Z" fill="#E0E0E0"/>
<path d="M117.4 220.378C116.789 220.512 116.168 220.591 115.543 220.615L110.472 221.012C106.193 221.34 100.284 221.736 93.7522 222.144C87.2206 222.551 81.3002 222.879 77.01 223.095L71.9386 223.31C71.3171 223.361 70.6923 223.361 70.0708 223.31C70.6785 223.183 71.2957 223.108 71.916 223.083L76.9873 222.676C81.2663 222.359 87.1753 221.951 93.7183 221.544C100.261 221.136 106.17 220.797 110.449 220.593L115.532 220.366C116.154 220.326 116.778 220.33 117.4 220.378Z" fill="#E0E0E0"/>
<path d="M118.045 229.796C117.436 229.915 116.819 229.991 116.2 230.022L111.128 230.43C106.849 230.747 100.94 231.143 94.4088 231.562C87.8772 231.981 81.9568 232.298 77.6665 232.513L72.5838 232.739C71.9658 232.784 71.3454 232.784 70.7274 232.739C71.334 232.605 71.9516 232.525 72.5725 232.501L77.6439 232.094C81.9228 231.777 87.8319 231.381 94.3635 230.962C100.895 230.543 106.816 230.226 111.106 230.011L116.188 229.796C116.806 229.737 117.428 229.737 118.045 229.796Z" fill="#E0E0E0"/>
<path d="M119.2 239.203C118.589 239.336 117.968 239.411 117.343 239.429L112.283 239.837C108.004 240.165 102.095 240.561 95.5521 240.969C89.0092 241.376 83.1001 241.705 78.8098 241.908L73.7385 242.135C73.1169 242.186 72.4922 242.186 71.8707 242.135C72.4774 242.002 73.0951 241.927 73.7158 241.908L78.7872 241.501C83.0662 241.184 88.9752 240.776 95.5182 240.369C102.061 239.961 107.97 239.622 112.249 239.418L117.332 239.192C117.954 239.151 118.578 239.155 119.2 239.203Z" fill="#E0E0E0"/>
<path d="M121.815 249.346C121.204 249.478 120.583 249.554 119.958 249.572L114.898 249.98C110.619 250.297 104.71 250.704 98.1671 251.112C91.6241 251.519 85.715 251.859 81.4248 252.062L76.3534 252.289C75.7316 252.333 75.1074 252.333 74.4856 252.289C75.0961 252.156 75.7176 252.08 76.3421 252.062L81.4021 251.655C85.6811 251.327 91.5901 250.93 98.1331 250.523C104.676 250.115 110.585 249.787 114.875 249.572L119.947 249.357C120.568 249.302 121.193 249.298 121.815 249.346Z" fill="#E0E0E0"/>
<path d="M107.766 76.2289L107.291 151.914H180.871L182.082 76.2289L176.332 76.6138L176.875 78.8778C176.773 80.372 175.743 80.9267 174.26 80.9719H174.17C172.664 80.9719 171.317 80.4739 171.17 78.9796L171.656 76.1723H166.483C166.483 76.1723 167.061 81.2663 163.868 81.1418C163.868 81.1418 160.97 80.5984 161.797 76.1723H157.484C157.484 76.1723 158.276 81.2889 154.971 81.1984C152.163 81.1191 152.288 78.2099 152.424 76.1723H147.896C147.896 76.1723 148.36 81.221 145.009 80.7795C141.658 80.338 142.745 76.1723 142.745 76.1723H136.972C136.972 76.1723 138.455 80.9606 135.002 80.9606C131.55 80.9606 132.206 77.3156 132.614 76.1723H128.199C128.199 76.1723 129.671 81.0512 125.267 80.7795C121.95 80.5758 123.807 76.1723 123.807 76.1723H117.671C117.671 76.1723 119.109 80.9606 115.804 80.9606C113.449 80.9606 112.657 78.0401 113.992 76.1723L107.766 76.2289Z" fill="#FAFAFA"/>
<path d="M124.142 65.4039L94.898 86.3173L100.62 94.3188L129.864 73.4055L124.142 65.4039Z" fill="#EBEBEB"/>
<path d="M189.726 134.683L160.482 155.597L166.204 163.598L195.448 142.685L189.726 134.683Z" fill="#EBEBEB"/>
<path d="M174.328 96.22C174.137 96.2507 173.942 96.2507 173.751 96.22H172.098L166.042 96.3219C160.925 96.3219 153.85 96.4011 146.051 96.4011C138.251 96.4011 131.165 96.4011 126.048 96.3219L119.992 96.3332H118.339C118.152 96.3647 117.961 96.3647 117.773 96.3332C117.961 96.3095 118.151 96.3095 118.339 96.3332H119.992L126.048 96.2426C131.165 96.2426 138.24 96.1521 146.051 96.1521C153.861 96.1521 160.925 96.1521 166.042 96.2426L172.098 96.3332H173.751C173.938 96.2717 174.132 96.2337 174.328 96.22Z" fill="#E0E0E0"/>
<path d="M172.958 109.804C172.779 109.836 172.595 109.836 172.415 109.804H170.841L165.057 109.895C160.178 109.951 153.431 109.985 145.971 109.985C138.512 109.985 131.776 109.985 126.897 109.895L121.124 109.951H119.551C119.367 109.982 119.179 109.982 118.996 109.951C119.179 109.92 119.367 109.92 119.551 109.951H121.124L126.909 109.861C131.787 109.861 138.534 109.77 145.983 109.77C153.431 109.77 160.189 109.77 165.068 109.861L170.853 109.951H172.426C172.593 109.871 172.774 109.821 172.958 109.804Z" fill="#E0E0E0"/>
<path d="M147.273 122.98C145.96 123.15 144.635 123.222 143.311 123.196C140.866 123.196 137.493 123.275 133.768 123.275C130.044 123.275 126.659 123.275 124.226 123.196C122.901 123.222 121.577 123.15 120.264 122.98C121.578 122.819 122.902 122.751 124.226 122.777C126.659 122.777 130.044 122.686 133.768 122.686C137.493 122.686 140.866 122.686 143.311 122.777C144.635 122.751 145.959 122.819 147.273 122.98Z" fill="#E0E0E0"/>
<path d="M536.432 522.825C536.432 522.984 431.507 523.12 302.108 523.12C172.709 523.12 67.7842 522.984 67.7842 522.825C67.7842 522.667 172.698 522.531 302.108 522.531C431.518 522.531 536.432 522.667 536.432 522.825Z" fill="#263238"/>
<path d="M439.273 478.927C437.269 481.791 433.364 480.84 431.564 479.096C429.764 477.353 428.994 474.806 428.292 472.395C426.707 466.871 425.111 461.075 426.289 455.415C426.574 453.714 427.322 452.124 428.451 450.819C429.022 450.176 429.753 449.694 430.57 449.422C431.386 449.149 432.26 449.096 433.103 449.268C435.073 449.789 436.295 451.713 437.178 453.536C439.774 458.942 441.135 464.858 441.163 470.855C441.352 473.66 440.693 476.456 439.273 478.881" fill="#E04237"/>
<path opacity="0.2" d="M439.273 478.927C437.269 481.791 433.364 480.84 431.564 479.096C429.764 477.353 428.994 474.806 428.292 472.395C426.707 466.871 425.111 461.075 426.289 455.415C426.574 453.714 427.322 452.124 428.451 450.819C429.022 450.176 429.753 449.694 430.57 449.422C431.386 449.149 432.26 449.096 433.103 449.268C435.073 449.789 436.295 451.713 437.178 453.536C439.774 458.942 441.135 464.858 441.163 470.855C441.352 473.66 440.693 476.456 439.273 478.881" fill="black"/>
<path d="M431.756 493.427C428.396 491.852 424.62 491.392 420.98 492.114C418.989 492.297 417.114 493.132 415.648 494.492C414.323 495.963 414.074 498.544 415.648 499.812C416.645 500.485 417.847 500.786 419.044 500.661C421.896 500.661 425.055 500.129 427.33 501.793C428.632 502.778 429.503 504.397 431.054 504.883C431.832 505.062 432.647 504.983 433.376 504.659C434.105 504.334 434.708 503.781 435.096 503.083C435.833 501.655 435.995 499.998 435.548 498.454C435.347 497.38 434.9 496.367 434.242 495.495C433.584 494.623 432.733 493.916 431.756 493.427Z" fill="#E04237"/>
<path d="M444.774 483.036C443.745 481.69 443.059 480.113 442.777 478.442C442.495 476.771 442.625 475.057 443.155 473.448C444.252 470.234 446.21 467.384 448.815 465.207C451.787 462.561 455.249 460.523 459.003 459.207C460.439 458.625 461.984 458.359 463.531 458.426C464.306 458.465 465.06 458.691 465.729 459.086C466.397 459.48 466.96 460.031 467.369 460.69C468.444 462.739 467.369 465.218 466.305 467.233C464.346 470.797 462.113 474.203 459.626 477.421C457.622 480.002 455.336 482.538 452.279 483.715C449.223 484.892 446.053 484.734 444.446 482.583" fill="#E04237"/>
<path d="M439.408 522.124C439.296 521.699 439.235 521.261 439.227 520.822C439.137 519.871 439.012 518.682 438.876 517.267C438.702 515.519 438.437 513.781 438.084 512.06C437.615 509.964 436.979 507.908 436.182 505.913C435.408 503.92 434.352 502.049 433.047 500.355C431.984 498.977 430.631 497.848 429.085 497.05C428.014 496.526 426.868 496.175 425.689 496.008C425.287 495.982 424.889 495.918 424.5 495.816C424.936 495.762 425.377 495.762 425.813 495.816C427.02 495.908 428.2 496.215 429.3 496.722C430.934 497.493 432.368 498.632 433.488 500.05C434.846 501.764 435.941 503.672 436.737 505.71C437.547 507.734 438.179 509.825 438.627 511.958C438.956 513.702 439.186 515.464 439.318 517.233C439.431 518.739 439.465 519.962 439.488 520.811C439.507 521.25 439.481 521.69 439.408 522.124Z" fill="#263238"/>
<path d="M439.216 519.396C439.202 519.192 439.202 518.988 439.216 518.784C439.216 518.331 439.216 517.765 439.216 517.064C439.216 515.558 439.216 513.396 439.137 510.713C439.001 505.359 438.537 497.967 437.654 489.839C436.771 481.711 435.56 474.399 434.484 469.157C434.224 467.844 433.964 466.656 433.726 465.626C433.488 464.595 433.296 463.69 433.103 462.965C432.911 462.241 432.809 461.731 432.696 461.29C432.638 461.095 432.604 460.893 432.594 460.69C432.687 460.869 432.755 461.059 432.798 461.256L433.307 462.909C433.522 463.633 433.76 464.516 434.009 465.558C434.258 466.599 434.575 467.822 434.847 469.078C436.294 475.917 437.375 482.828 438.084 489.782C438.978 497.922 439.375 505.336 439.408 510.713C439.408 513.396 439.408 515.569 439.318 517.064C439.273 517.765 439.239 518.343 439.216 518.796C439.241 518.995 439.241 519.196 439.216 519.396Z" fill="#263238"/>
<path d="M439.126 505.087C439.078 504.488 439.078 503.886 439.126 503.287C439.193 502.155 439.352 500.457 439.68 498.397C440.071 495.995 440.6 493.618 441.265 491.277C442.06 488.404 443.055 485.589 444.242 482.855C446.312 477.834 449.277 473.231 452.993 469.271C453.634 468.59 454.318 467.951 455.041 467.358C455.358 467.086 455.641 466.826 455.924 466.61L456.717 466.056C457.202 465.695 457.713 465.369 458.245 465.082C456.496 466.462 454.832 467.948 453.264 469.531C449.667 473.538 446.784 478.133 444.74 483.115C443.557 485.827 442.555 488.614 441.74 491.458C440.959 494.073 440.45 496.484 440.054 498.51C439.658 500.536 439.465 502.2 439.341 503.344C439.31 503.929 439.238 504.512 439.126 505.087Z" fill="#263238"/>
<path d="M441.005 422.451L196.108 391.31L238.761 55.8642L489.749 87.7866C491.065 87.9532 492.261 88.636 493.074 89.6847C493.887 90.7334 494.251 92.0622 494.084 93.3787L453.457 412.806C453.273 414.258 452.806 415.659 452.081 416.929C451.356 418.2 450.387 419.315 449.23 420.211C448.074 421.107 446.752 421.766 445.341 422.15C443.929 422.534 442.456 422.637 441.005 422.451Z" fill="#455A64"/>
<path d="M473.567 144.007L471.491 160.323L501.855 164.186L503.931 147.87L473.567 144.007Z" fill="#E04237"/>
<path opacity="0.3" d="M473.567 144.007L471.491 160.323L501.855 164.186L503.931 147.87L473.567 144.007Z" fill="black"/>
<path d="M484.991 96.4115L248.161 66.2829L207.581 385.268L444.411 415.397L484.991 96.4115Z" fill="#E0E0E0"/>
<path d="M474.934 91.1648L238.104 61.0362L197.524 380.021L434.354 410.15L474.934 91.1648Z" fill="#FAFAFA"/>
<path d="M241.789 92.0429L241.646 93.1658L477.645 123.189L477.788 122.066L241.789 92.0429Z" fill="#E0E0E0"/>
<path d="M241.254 108.1L241.111 109.223L477.11 139.246L477.253 138.123L241.254 108.1Z" fill="#E0E0E0"/>
<path d="M239.242 123.953L239.1 125.076L475.099 155.099L475.241 153.976L239.242 123.953Z" fill="#E0E0E0"/>
<path d="M238.51 140.669L238.363 141.789L473.885 172.717L474.032 171.596L238.51 140.669Z" fill="#E0E0E0"/>
<path d="M236.448 156.589L236.301 157.709L471.823 188.636L471.97 187.516L236.448 156.589Z" fill="#E0E0E0"/>
<path d="M234.386 172.497L234.239 173.618L469.761 204.545L469.908 203.424L234.386 172.497Z" fill="#E0E0E0"/>
<path d="M232.336 188.417L232.189 189.538L467.711 220.465L467.858 219.344L232.336 188.417Z" fill="#E0E0E0"/>
<path d="M229.151 203.26L229.008 204.383L465.007 234.406L465.15 233.283L229.151 203.26Z" fill="#E0E0E0"/>
<path d="M227.14 219.125L226.997 220.248L462.996 250.271L463.139 249.148L227.14 219.125Z" fill="#E0E0E0"/>
<path d="M226.171 236.178L226.024 237.299L461.546 268.226L461.693 267.105L226.171 236.178Z" fill="#E0E0E0"/>
<path d="M224.109 252.087L223.962 253.207L459.484 284.134L459.631 283.014L224.109 252.087Z" fill="#E0E0E0"/>
<path d="M222.047 268.007L221.9 269.127L457.422 300.054L457.569 298.934L222.047 268.007Z" fill="#E0E0E0"/>
<path d="M219.995 283.938L219.848 285.058L455.37 315.985L455.517 314.865L219.995 283.938Z" fill="#E0E0E0"/>
<path d="M215.882 315.768L215.735 316.888L451.257 347.815L451.404 346.695L215.882 315.768Z" fill="#E0E0E0"/>
<path d="M213.832 331.687L213.685 332.808L449.207 363.735L449.354 362.615L213.832 331.687Z" fill="#E0E0E0"/>
<path d="M211.77 347.596L211.623 348.717L447.145 379.644L447.292 378.523L211.77 347.596Z" fill="#E0E0E0"/>
<path d="M208.98 361.888L208.837 363.011L444.836 393.034L444.979 391.911L208.98 361.888Z" fill="#E0E0E0"/>
<path d="M275.226 67.4426L234.564 385.299L235.687 385.442L276.349 67.5862L275.226 67.4426Z" fill="#E04237"/>
<path d="M258.73 80.7116C258.608 81.6639 258.207 82.5589 257.577 83.2833C256.947 84.0077 256.116 84.5291 255.19 84.7816C254.264 85.0341 253.283 85.0064 252.373 84.702C251.462 84.3975 250.662 83.83 250.074 83.0711C249.486 82.3123 249.136 81.3961 249.069 80.4384C249.001 79.4807 249.219 78.5244 249.694 77.6904C250.17 76.8565 250.882 76.1822 251.741 75.7528C252.6 75.3234 253.566 75.1582 254.519 75.278C255.152 75.3577 255.764 75.5615 256.319 75.8779C256.873 76.1942 257.36 76.6168 257.751 77.1215C258.142 77.6262 258.43 78.2031 258.598 78.8191C258.766 79.4351 258.811 80.0782 258.73 80.7116Z" fill="#455A64"/>
<path d="M254.225 116.098C254.105 117.051 253.705 117.948 253.075 118.674C252.445 119.4 251.614 119.923 250.687 120.177C249.76 120.43 248.779 120.403 247.868 120.098C246.956 119.794 246.155 119.226 245.567 118.466C244.978 117.706 244.629 116.789 244.562 115.83C244.495 114.871 244.714 113.914 245.191 113.08C245.669 112.246 246.383 111.573 247.243 111.144C248.104 110.716 249.072 110.553 250.025 110.676C251.299 110.842 252.455 111.506 253.242 112.522C254.029 113.537 254.382 114.823 254.225 116.098Z" fill="#455A64"/>
<path d="M249.719 151.496C249.595 152.445 249.193 153.336 248.563 154.057C247.933 154.778 247.104 155.296 246.18 155.546C245.256 155.796 244.278 155.767 243.371 155.461C242.464 155.156 241.667 154.589 241.082 153.832C240.496 153.075 240.148 152.161 240.082 151.206C240.015 150.251 240.233 149.297 240.708 148.466C241.183 147.635 241.893 146.963 242.749 146.535C243.606 146.107 244.57 145.943 245.519 146.062C246.153 146.142 246.764 146.345 247.318 146.662C247.872 146.978 248.358 147.401 248.748 147.906C249.139 148.411 249.425 148.988 249.592 149.604C249.758 150.22 249.802 150.863 249.719 151.496Z" fill="#455A64"/>
<path d="M245.225 186.882C245.106 187.835 244.706 188.731 244.077 189.457C243.448 190.184 242.618 190.707 241.692 190.961C240.765 191.215 239.784 191.189 238.873 190.885C237.961 190.582 237.16 190.015 236.571 189.256C235.982 188.498 235.631 187.581 235.563 186.623C235.494 185.665 235.712 184.708 236.187 183.873C236.663 183.039 237.375 182.364 238.235 181.934C239.094 181.505 240.061 181.339 241.014 181.46C242.29 181.623 243.449 182.286 244.238 183.302C245.027 184.318 245.382 185.605 245.225 186.882Z" fill="#455A64"/>
<path d="M240.72 222.28C240.6 223.233 240.2 224.13 239.57 224.856C238.941 225.582 238.11 226.105 237.183 226.358C236.256 226.612 235.274 226.585 234.363 226.28C233.451 225.976 232.651 225.407 232.062 224.648C231.474 223.888 231.124 222.971 231.057 222.012C230.99 221.053 231.209 220.096 231.686 219.262C232.164 218.428 232.878 217.754 233.738 217.326C234.599 216.898 235.567 216.735 236.52 216.857C237.152 216.937 237.762 217.14 238.316 217.456C238.869 217.772 239.354 218.194 239.744 218.697C240.135 219.201 240.422 219.777 240.589 220.391C240.756 221.006 240.801 221.648 240.72 222.28Z" fill="#455A64"/>
<path d="M236.214 257.677C236.091 258.626 235.688 259.518 235.059 260.239C234.429 260.959 233.599 261.478 232.675 261.728C231.751 261.977 230.774 261.948 229.866 261.643C228.959 261.338 228.162 260.771 227.577 260.014C226.991 259.256 226.643 258.342 226.577 257.387C226.51 256.432 226.728 255.479 227.203 254.648C227.678 253.816 228.388 253.144 229.245 252.717C230.101 252.289 231.065 252.124 232.015 252.244C232.648 252.323 233.259 252.527 233.813 252.844C234.367 253.16 234.853 253.583 235.244 254.088C235.634 254.593 235.92 255.17 236.087 255.786C236.254 256.402 236.297 257.044 236.214 257.677Z" fill="#455A64"/>
<path d="M231.72 293.063C231.6 294.017 231.2 294.914 230.569 295.64C229.939 296.366 229.107 296.889 228.18 297.142C227.252 297.395 226.27 297.367 225.359 297.061C224.447 296.755 223.647 296.186 223.059 295.425C222.471 294.664 222.123 293.746 222.057 292.787C221.992 291.828 222.213 290.87 222.692 290.037C223.171 289.203 223.886 288.531 224.748 288.104C225.61 287.678 226.579 287.517 227.532 287.641C228.805 287.808 229.961 288.472 230.745 289.488C231.53 290.504 231.881 291.79 231.72 293.063Z" fill="#455A64"/>
<path d="M227.215 328.461C227.093 329.414 226.691 330.309 226.061 331.033C225.43 331.758 224.598 332.279 223.672 332.531C222.745 332.783 221.764 332.754 220.853 332.448C219.943 332.143 219.143 331.574 218.556 330.814C217.968 330.054 217.619 329.137 217.553 328.179C217.487 327.221 217.707 326.264 218.184 325.431C218.661 324.597 219.375 323.924 220.235 323.496C221.095 323.069 222.063 322.905 223.015 323.027C223.648 323.107 224.26 323.311 224.814 323.628C225.368 323.944 225.854 324.367 226.244 324.872C226.634 325.377 226.921 325.954 227.088 326.57C227.254 327.186 227.298 327.828 227.215 328.461Z" fill="#455A64"/>
<path d="M222.721 363.847C222.602 364.801 222.202 365.697 221.573 366.423C220.944 367.149 220.114 367.672 219.187 367.926C218.261 368.181 217.28 368.154 216.369 367.851C215.457 367.548 214.656 366.981 214.067 366.222C213.478 365.463 213.127 364.547 213.058 363.589C212.99 362.631 213.208 361.674 213.683 360.839C214.159 360.004 214.871 359.329 215.73 358.9C216.59 358.47 217.557 358.305 218.51 358.425C219.786 358.589 220.945 359.251 221.734 360.267C222.523 361.284 222.878 362.571 222.721 363.847Z" fill="#455A64"/>
<path d="M234.686 94.7597C234.686 94.8163 234.494 94.8163 234.154 94.7597C233.656 94.6787 233.167 94.5498 232.694 94.3748C231.938 94.0768 231.217 93.6972 230.543 93.2428C229.645 92.6297 228.844 91.8857 228.166 91.0354C227.359 89.988 226.731 88.8136 226.309 87.5602C225.831 86.1255 225.582 84.6239 225.574 83.1114C225.509 81.3899 225.859 79.678 226.592 78.1193C227.455 76.4785 228.716 75.0809 230.26 74.0554C231.773 73.0368 233.487 72.3537 235.286 72.0518C236.939 71.78 238.625 71.78 240.278 72.0518C243.021 72.5337 245.636 73.5698 247.965 75.0969C249.507 76.0844 250.948 77.222 252.266 78.4929C253.183 79.3985 253.625 79.9645 253.545 80.055C253.466 80.1456 252.866 79.7607 251.825 79.0249C250.368 77.9859 248.857 77.026 247.297 76.1496C245.047 74.8715 242.578 74.0232 240.018 73.6479C238.539 73.4469 237.038 73.4774 235.569 73.7385C234.013 74.019 232.533 74.6204 231.222 75.5044C229.923 76.3686 228.851 77.5336 228.098 78.9004C227.476 80.2121 227.163 81.6486 227.181 83.1001C227.158 84.4497 227.33 85.7955 227.69 87.0961C228.009 88.2257 228.502 89.2988 229.151 90.277C229.707 91.0799 230.369 91.8034 231.12 92.4278C231.697 92.9074 232.314 93.3355 232.966 93.707C233.498 94.0239 233.95 94.1937 234.245 94.3748C234.539 94.556 234.709 94.7031 234.686 94.7597Z" fill="#E04237"/>
<path d="M230.192 130.18C230.192 130.248 229.988 130.18 229.649 130.18C229.151 130.093 228.662 129.96 228.189 129.784C227.433 129.492 226.715 129.112 226.049 128.652C225.144 128.052 224.341 127.311 223.672 126.456C222.856 125.414 222.228 124.238 221.815 122.98C221.337 121.542 221.088 120.037 221.08 118.52C221.006 116.799 221.352 115.086 222.087 113.528C222.956 111.895 224.216 110.503 225.755 109.476C227.27 108.452 228.988 107.765 230.792 107.461C232.445 107.189 234.131 107.189 235.784 107.461C238.525 107.938 241.137 108.974 243.459 110.506C245.001 111.493 246.442 112.631 247.761 113.902C248.689 114.807 249.131 115.373 249.051 115.464C248.972 115.555 248.372 115.158 247.319 114.434C245.866 113.39 244.354 112.43 242.791 111.559C240.541 110.278 238.073 109.426 235.513 109.046C234.03 108.844 232.526 108.875 231.053 109.136C229.509 109.431 228.044 110.044 226.751 110.936C225.451 111.8 224.38 112.965 223.627 114.332C223.002 115.643 222.688 117.08 222.71 118.532C222.678 119.885 222.846 121.235 223.208 122.539C223.525 123.671 224.022 124.745 224.679 125.72C225.225 126.524 225.885 127.245 226.638 127.859C227.213 128.34 227.831 128.769 228.483 129.139C229.015 129.467 229.479 129.637 229.762 129.818C230.045 129.999 230.204 130.089 230.192 130.18Z" fill="#E04237"/>
<path d="M225.687 165.544C225.687 165.544 225.483 165.544 225.143 165.544C224.65 165.461 224.164 165.332 223.695 165.159C221.914 164.486 220.349 163.344 219.167 161.853C218.353 160.806 217.725 159.626 217.31 158.367C216.831 156.932 216.583 155.431 216.574 153.918C216.51 152.196 216.859 150.485 217.593 148.926C218.448 147.287 219.707 145.892 221.249 144.873C222.767 143.853 224.484 143.166 226.287 142.858C227.94 142.587 229.626 142.587 231.279 142.858C234.024 143.339 236.64 144.379 238.965 145.915C240.504 146.902 241.941 148.039 243.255 149.311C244.184 150.205 244.625 150.771 244.546 150.862C244.467 150.952 243.867 150.567 242.825 149.832C241.366 148.799 239.855 147.843 238.297 146.968C236.05 145.681 233.581 144.828 231.019 144.455C229.54 144.253 228.039 144.284 226.57 144.545C225.014 144.826 223.534 145.427 222.223 146.311C220.923 147.175 219.852 148.34 219.099 149.707C218.477 151.019 218.163 152.455 218.182 153.907C218.147 155.257 218.319 156.604 218.691 157.903C219.005 159.034 219.498 160.108 220.151 161.084C220.704 161.886 221.363 162.609 222.11 163.234C222.69 163.709 223.307 164.137 223.955 164.514C224.498 164.831 224.951 165.012 225.234 165.193C225.517 165.374 225.709 165.487 225.687 165.544Z" fill="#E04237"/>
<path d="M221.181 200.941C221.181 200.998 220.989 200.998 220.649 200.941C220.151 200.855 219.662 200.723 219.189 200.545C218.432 200.258 217.713 199.878 217.05 199.413C216.143 198.811 215.337 198.07 214.661 197.217C213.854 196.17 213.226 194.995 212.805 193.742C212.336 192.301 212.088 190.797 212.069 189.282C212.006 187.56 212.356 185.849 213.088 184.29C213.957 182.657 215.217 181.264 216.755 180.237C218.266 179.214 219.981 178.53 221.781 178.233C223.434 177.962 225.121 177.962 226.774 178.233C229.518 178.708 232.135 179.745 234.46 181.278C236.002 182.266 237.443 183.404 238.761 184.674C239.678 185.58 240.12 186.146 240.052 186.237C239.984 186.327 239.361 185.942 238.32 185.207C236.865 184.165 235.353 183.205 233.792 182.331C231.54 181.056 229.073 180.204 226.513 179.818C225.03 179.623 223.527 179.653 222.053 179.909C220.498 180.198 219.019 180.803 217.706 181.686C216.424 182.482 215.374 183.602 214.665 184.934C213.955 186.266 213.61 187.762 213.665 189.27C213.643 190.624 213.814 191.973 214.174 193.278C214.493 194.407 214.986 195.48 215.635 196.459C216.188 197.26 216.851 197.981 217.604 198.598C218.18 199.079 218.797 199.507 219.45 199.877C219.982 200.206 220.434 200.375 220.729 200.556C221.023 200.738 221.204 200.873 221.181 200.941Z" fill="#E04237"/>
<path d="M216.687 236.328C216.687 236.328 216.484 236.328 216.144 236.328C215.648 236.235 215.159 236.102 214.684 235.931C213.931 235.635 213.213 235.256 212.544 234.799C211.639 234.2 210.836 233.458 210.167 232.603C209.351 231.557 208.723 230.378 208.311 229.117C207.832 227.682 207.583 226.181 207.575 224.668C207.512 222.948 207.857 221.237 208.582 219.676C209.449 218.041 210.709 216.648 212.25 215.623C213.767 214.601 215.484 213.914 217.287 213.608C218.94 213.336 220.627 213.336 222.28 213.608C225.02 214.085 227.633 215.122 229.954 216.653C231.497 217.641 232.938 218.779 234.256 220.049C235.184 220.955 235.626 221.521 235.547 221.6C235.467 221.68 234.867 221.306 233.826 220.582C232.37 219.541 230.859 218.581 229.298 217.706C227.048 216.426 224.58 215.574 222.019 215.193C220.541 214.992 219.04 215.023 217.57 215.284C216.015 215.564 214.534 216.166 213.224 217.05C211.924 217.914 210.852 219.079 210.099 220.446C209.472 221.756 209.158 223.193 209.182 224.645C209.151 225.998 209.319 227.349 209.68 228.653C210.005 229.779 210.501 230.848 211.152 231.822C211.699 232.629 212.358 233.354 213.11 233.973C213.689 234.45 214.306 234.878 214.955 235.252C215.488 235.569 215.952 235.75 216.235 235.931C216.518 236.113 216.699 236.271 216.687 236.328Z" fill="#E04237"/>
<path d="M212.182 271.68C212.182 271.737 211.99 271.737 211.65 271.68C211.153 271.593 210.665 271.465 210.19 271.295C209.432 271.001 208.71 270.621 208.039 270.163C207.138 269.558 206.337 268.817 205.662 267.967C204.854 266.92 204.227 265.745 203.805 264.492C203.326 263.057 203.078 261.556 203.069 260.043C203.005 258.322 203.355 256.61 204.088 255.051C204.951 253.41 206.212 252.013 207.756 250.987C209.282 249.979 211.008 249.315 212.816 249.04C214.469 248.768 216.155 248.768 217.808 249.04C220.551 249.522 223.166 250.558 225.494 252.085C227.037 253.073 228.477 254.21 229.796 255.481C230.713 256.387 231.154 256.953 231.075 257.043C230.996 257.134 230.396 256.749 229.355 256.013C227.898 254.974 226.386 254.014 224.827 253.138C222.576 251.86 220.108 251.011 217.548 250.636C216.07 250.431 214.569 250.458 213.099 250.715C211.544 251.005 210.065 251.61 208.752 252.493C207.465 253.287 206.413 254.408 205.703 255.743C204.993 257.078 204.65 258.578 204.711 260.088C204.682 261.438 204.854 262.785 205.22 264.084C205.534 265.216 206.027 266.29 206.681 267.265C207.237 268.068 207.899 268.792 208.65 269.416C209.222 269.893 209.836 270.318 210.484 270.684C211.027 271.012 211.48 271.182 211.775 271.363C212.069 271.544 212.205 271.68 212.182 271.68Z" fill="#E04237"/>
<path d="M207.688 307.112C207.688 307.179 207.484 307.168 207.145 307.112C206.648 307.019 206.16 306.886 205.684 306.715C204.929 306.424 204.211 306.044 203.545 305.583C202.637 304.978 201.831 304.233 201.156 303.376C200.349 302.331 199.725 301.155 199.311 299.901C198.833 298.462 198.585 296.957 198.575 295.441C198.502 293.72 198.848 292.006 199.583 290.449C200.452 288.816 201.712 287.423 203.251 286.396C204.766 285.372 206.484 284.685 208.288 284.381C209.941 284.109 211.627 284.109 213.28 284.381C216.021 284.858 218.633 285.894 220.955 287.426C222.497 288.414 223.938 289.551 225.257 290.822C226.185 291.728 226.626 292.294 226.547 292.384C226.468 292.475 225.857 292.079 224.815 291.354C223.362 290.31 221.85 289.35 220.287 288.479C218.037 287.198 215.569 286.346 213.008 285.966C211.526 285.765 210.021 285.795 208.548 286.056C206.996 286.337 205.519 286.938 204.213 287.822C202.913 288.687 201.842 289.852 201.088 291.218C200.462 292.529 200.149 293.966 200.172 295.418C200.14 296.771 200.308 298.121 200.67 299.425C200.987 300.558 201.484 301.631 202.141 302.606C202.687 303.41 203.347 304.131 204.1 304.746C204.701 305.25 205.344 305.701 206.024 306.093C206.556 306.41 207.02 306.591 207.303 306.772C207.586 306.953 207.699 307.055 207.688 307.112Z" fill="#E04237"/>
<path d="M203.183 342.509C203.183 342.566 202.979 342.566 202.639 342.509C202.145 342.427 201.66 342.298 201.19 342.124C200.434 341.826 199.713 341.447 199.04 340.992C198.139 340.382 197.337 339.638 196.662 338.785C195.847 337.743 195.218 336.567 194.806 335.31C194.327 333.875 194.079 332.373 194.07 330.861C194.006 329.139 194.355 327.428 195.089 325.869C195.947 324.229 197.205 322.831 198.745 321.805C200.264 320.788 201.981 320.105 203.783 319.801C205.436 319.53 207.122 319.53 208.775 319.801C211.517 320.283 214.133 321.319 216.461 322.846C218 323.833 219.437 324.971 220.751 326.242C221.68 327.148 222.121 327.714 222.042 327.805C221.963 327.895 221.363 327.51 220.321 326.774C218.863 325.738 217.351 324.778 215.793 323.899C213.543 322.621 211.075 321.773 208.514 321.397C207.036 321.196 205.535 321.227 204.066 321.488C202.51 321.769 201.029 322.37 199.719 323.254C198.419 324.118 197.348 325.283 196.594 326.65C195.973 327.962 195.659 329.398 195.678 330.85C195.643 332.2 195.815 333.547 196.187 334.846C196.5 335.977 196.993 337.051 197.647 338.026C198.2 338.829 198.858 339.552 199.606 340.177C200.186 340.652 200.803 341.08 201.451 341.456C201.983 341.773 202.447 341.943 202.73 342.124C203.013 342.305 203.205 342.453 203.183 342.509Z" fill="#E04237"/>
<path d="M198.677 377.896C198.677 377.963 198.485 377.952 198.145 377.896C197.647 377.81 197.158 377.677 196.685 377.499C195.925 377.211 195.203 376.83 194.534 376.367C193.634 375.762 192.832 375.021 192.157 374.171C191.35 373.124 190.722 371.949 190.301 370.696C189.833 369.255 189.584 367.751 189.565 366.236C189.501 364.514 189.851 362.803 190.584 361.244C191.453 359.611 192.713 358.219 194.251 357.191C195.764 356.169 197.478 355.482 199.277 355.176C200.93 354.904 202.616 354.904 204.269 355.176C207.014 355.651 209.631 356.688 211.956 358.221C213.498 359.209 214.939 360.346 216.257 361.617C217.174 362.523 217.616 363.089 217.536 363.18C217.457 363.27 216.857 362.874 215.816 362.149C214.361 361.108 212.849 360.148 211.288 359.274C209.034 357.992 206.562 357.14 203.998 356.761C202.519 356.56 201.018 356.591 199.549 356.852C197.993 357.132 196.513 357.734 195.202 358.618C193.903 359.479 192.834 360.645 192.089 362.014C191.461 363.323 191.143 364.761 191.161 366.213C191.139 367.567 191.31 368.916 191.67 370.221C191.989 371.35 192.482 372.423 193.131 373.401C193.684 374.203 194.347 374.924 195.1 375.541C195.675 376.022 196.293 376.45 196.945 376.82C197.477 377.148 197.93 377.318 198.225 377.499C198.519 377.68 198.7 377.839 198.677 377.896Z" fill="#E04237"/>
<g opacity="0.2">
<path d="M234.686 94.7597C234.686 94.8163 234.494 94.8163 234.154 94.7597C233.656 94.6787 233.167 94.5498 232.694 94.3748C231.938 94.0768 231.217 93.6972 230.543 93.2428C229.645 92.6297 228.844 91.8857 228.166 91.0354C227.359 89.988 226.731 88.8136 226.309 87.5602C225.831 86.1255 225.582 84.6239 225.574 83.1114C225.509 81.3899 225.859 79.678 226.592 78.1193C227.455 76.4785 228.716 75.0809 230.26 74.0554C231.773 73.0368 233.487 72.3537 235.286 72.0518C236.939 71.78 238.625 71.78 240.278 72.0518C243.021 72.5337 245.636 73.5698 247.965 75.0969C249.507 76.0844 250.948 77.222 252.266 78.4929C253.183 79.3985 253.625 79.9645 253.545 80.055C253.466 80.1456 252.866 79.7607 251.825 79.0249C250.368 77.9859 248.857 77.026 247.297 76.1496C245.047 74.8715 242.578 74.0232 240.018 73.6479C238.539 73.4469 237.038 73.4774 235.569 73.7385C234.013 74.019 232.533 74.6204 231.222 75.5044C229.923 76.3686 228.851 77.5336 228.098 78.9004C227.476 80.2121 227.163 81.6486 227.181 83.1001C227.158 84.4497 227.33 85.7955 227.69 87.0961C228.009 88.2257 228.502 89.2988 229.151 90.277C229.707 91.0799 230.369 91.8034 231.12 92.4278C231.697 92.9074 232.314 93.3355 232.966 93.707C233.498 94.0239 233.95 94.1937 234.245 94.3748C234.539 94.556 234.709 94.7031 234.686 94.7597Z" fill="black"/>
<path d="M230.192 130.18C230.192 130.248 229.988 130.18 229.649 130.18C229.151 130.093 228.662 129.96 228.189 129.784C227.433 129.492 226.715 129.112 226.049 128.652C225.144 128.052 224.341 127.311 223.672 126.456C222.856 125.414 222.228 124.238 221.815 122.98C221.337 121.542 221.088 120.037 221.08 118.52C221.006 116.799 221.352 115.086 222.087 113.528C222.956 111.895 224.216 110.503 225.755 109.476C227.27 108.452 228.988 107.765 230.792 107.461C232.445 107.189 234.131 107.189 235.784 107.461C238.525 107.938 241.137 108.974 243.459 110.506C245.001 111.493 246.442 112.631 247.761 113.902C248.689 114.807 249.131 115.373 249.051 115.464C248.972 115.555 248.372 115.158 247.319 114.434C245.866 113.39 244.354 112.43 242.791 111.559C240.541 110.278 238.073 109.426 235.513 109.046C234.03 108.844 232.526 108.875 231.053 109.136C229.509 109.431 228.044 110.044 226.751 110.936C225.451 111.8 224.38 112.965 223.627 114.332C223.002 115.643 222.688 117.08 222.71 118.532C222.678 119.885 222.846 121.235 223.208 122.539C223.525 123.671 224.022 124.745 224.679 125.72C225.225 126.524 225.885 127.245 226.638 127.859C227.213 128.34 227.831 128.769 228.483 129.139C229.015 129.467 229.479 129.637 229.762 129.818C230.045 129.999 230.204 130.089 230.192 130.18Z" fill="black"/>
<path d="M225.687 165.544C225.687 165.544 225.483 165.544 225.143 165.544C224.65 165.461 224.164 165.332 223.695 165.159C221.914 164.486 220.349 163.344 219.167 161.853C218.353 160.806 217.725 159.626 217.31 158.367C216.831 156.932 216.583 155.431 216.574 153.918C216.51 152.196 216.859 150.485 217.593 148.926C218.448 147.287 219.707 145.892 221.249 144.873C222.767 143.853 224.484 143.166 226.287 142.858C227.94 142.587 229.626 142.587 231.279 142.858C234.024 143.339 236.64 144.379 238.965 145.915C240.504 146.902 241.941 148.039 243.255 149.311C244.184 150.205 244.625 150.771 244.546 150.862C244.467 150.952 243.867 150.567 242.825 149.832C241.366 148.799 239.855 147.844 238.297 146.968C236.05 145.681 233.581 144.828 231.019 144.455C229.54 144.253 228.039 144.284 226.57 144.545C225.014 144.826 223.534 145.427 222.223 146.311C220.923 147.175 219.852 148.34 219.099 149.707C218.477 151.019 218.163 152.455 218.182 153.907C218.147 155.257 218.319 156.604 218.691 157.903C219.005 159.034 219.498 160.108 220.151 161.084C220.704 161.886 221.363 162.609 222.11 163.234C222.69 163.709 223.307 164.137 223.955 164.514C224.498 164.831 224.951 165.012 225.234 165.193C225.517 165.374 225.709 165.487 225.687 165.544Z" fill="black"/>
<path d="M221.181 200.941C221.181 200.998 220.989 200.998 220.649 200.941C220.151 200.855 219.662 200.723 219.189 200.545C218.432 200.258 217.713 199.878 217.05 199.413C216.143 198.811 215.337 198.07 214.661 197.217C213.854 196.17 213.226 194.995 212.805 193.742C212.336 192.301 212.088 190.797 212.069 189.282C212.006 187.56 212.356 185.849 213.088 184.29C213.957 182.657 215.217 181.264 216.755 180.237C218.266 179.214 219.981 178.53 221.781 178.233C223.434 177.962 225.121 177.962 226.774 178.233C229.518 178.708 232.135 179.745 234.46 181.278C236.002 182.266 237.443 183.404 238.761 184.674C239.678 185.58 240.12 186.146 240.052 186.237C239.984 186.327 239.361 185.942 238.32 185.207C236.865 184.165 235.353 183.205 233.792 182.331C231.54 181.056 229.073 180.204 226.513 179.818C225.03 179.623 223.527 179.653 222.053 179.909C220.498 180.198 219.019 180.803 217.706 181.686C216.424 182.482 215.374 183.602 214.665 184.934C213.955 186.266 213.61 187.762 213.665 189.27C213.643 190.624 213.814 191.973 214.174 193.278C214.493 194.407 214.986 195.48 215.635 196.459C216.188 197.26 216.851 197.981 217.604 198.598C218.18 199.079 218.797 199.507 219.45 199.877C219.982 200.206 220.434 200.375 220.729 200.556C221.023 200.738 221.204 200.873 221.181 200.941Z" fill="black"/>
<path d="M216.687 236.328C216.687 236.328 216.484 236.328 216.144 236.328C215.648 236.235 215.159 236.102 214.684 235.931C213.931 235.635 213.213 235.256 212.544 234.799C211.639 234.2 210.836 233.458 210.167 232.603C209.351 231.557 208.723 230.378 208.311 229.117C207.832 227.682 207.583 226.181 207.575 224.668C207.512 222.948 207.857 221.237 208.582 219.676C209.449 218.041 210.709 216.648 212.25 215.623C213.767 214.601 215.484 213.914 217.287 213.608C218.94 213.336 220.627 213.336 222.28 213.608C225.02 214.085 227.633 215.122 229.954 216.653C231.497 217.641 232.938 218.779 234.256 220.049C235.184 220.955 235.626 221.521 235.547 221.6C235.467 221.68 234.867 221.306 233.826 220.582C232.37 219.541 230.859 218.581 229.298 217.706C227.048 216.426 224.58 215.574 222.019 215.193C220.541 214.992 219.04 215.023 217.57 215.284C216.015 215.564 214.534 216.166 213.224 217.05C211.924 217.914 210.852 219.079 210.099 220.446C209.472 221.756 209.158 223.193 209.182 224.645C209.151 225.998 209.319 227.349 209.68 228.653C210.005 229.779 210.501 230.848 211.152 231.822C211.699 232.629 212.358 233.354 213.11 233.973C213.689 234.45 214.306 234.878 214.955 235.252C215.488 235.569 215.952 235.75 216.235 235.931C216.518 236.113 216.699 236.271 216.687 236.328Z" fill="black"/>
<path d="M212.182 271.68C212.182 271.737 211.99 271.737 211.65 271.68C211.153 271.593 210.665 271.465 210.19 271.295C209.432 271.001 208.71 270.621 208.039 270.163C207.138 269.558 206.337 268.817 205.662 267.967C204.854 266.92 204.227 265.745 203.805 264.492C203.326 263.057 203.078 261.556 203.069 260.043C203.005 258.322 203.355 256.61 204.088 255.051C204.951 253.41 206.212 252.013 207.756 250.987C209.282 249.979 211.008 249.315 212.816 249.04C214.469 248.768 216.155 248.768 217.808 249.04C220.551 249.522 223.166 250.558 225.494 252.085C227.037 253.073 228.477 254.21 229.796 255.481C230.713 256.387 231.154 256.953 231.075 257.043C230.996 257.134 230.396 256.749 229.355 256.013C227.898 254.974 226.386 254.014 224.827 253.138C222.576 251.86 220.108 251.011 217.548 250.636C216.07 250.431 214.569 250.458 213.099 250.715C211.544 251.005 210.065 251.61 208.752 252.493C207.465 253.287 206.413 254.408 205.703 255.743C204.993 257.078 204.65 258.578 204.711 260.088C204.682 261.438 204.854 262.785 205.22 264.084C205.534 265.216 206.027 266.29 206.681 267.265C207.237 268.068 207.899 268.792 208.65 269.416C209.222 269.893 209.836 270.318 210.484 270.684C211.027 271.012 211.48 271.182 211.775 271.363C212.069 271.544 212.205 271.68 212.182 271.68Z" fill="black"/>
<path d="M207.688 307.112C207.688 307.18 207.484 307.168 207.145 307.112C206.648 307.019 206.16 306.886 205.684 306.715C204.929 306.424 204.211 306.044 203.545 305.583C202.637 304.978 201.831 304.233 201.156 303.376C200.349 302.331 199.725 301.156 199.311 299.901C198.833 298.462 198.585 296.957 198.575 295.441C198.502 293.72 198.848 292.007 199.583 290.449C200.452 288.816 201.712 287.423 203.251 286.396C204.766 285.372 206.484 284.685 208.288 284.381C209.941 284.109 211.627 284.109 213.28 284.381C216.021 284.858 218.633 285.895 220.955 287.426C222.497 288.414 223.938 289.551 225.257 290.822C226.185 291.728 226.626 292.294 226.547 292.384C226.468 292.475 225.857 292.079 224.815 291.354C223.362 290.31 221.85 289.35 220.287 288.479C218.037 287.198 215.569 286.346 213.008 285.966C211.526 285.765 210.021 285.795 208.548 286.056C206.996 286.337 205.519 286.938 204.213 287.822C202.913 288.687 201.842 289.852 201.088 291.218C200.462 292.529 200.149 293.966 200.172 295.418C200.14 296.771 200.308 298.121 200.67 299.425C200.987 300.558 201.484 301.631 202.141 302.606C202.687 303.41 203.347 304.131 204.1 304.746C204.701 305.25 205.344 305.701 206.024 306.093C206.556 306.41 207.02 306.591 207.303 306.772C207.586 306.953 207.699 307.055 207.688 307.112Z" fill="black"/>
<path d="M203.183 342.509C203.183 342.566 202.979 342.566 202.639 342.509C202.145 342.427 201.66 342.298 201.19 342.124C200.434 341.826 199.713 341.447 199.04 340.992C198.139 340.382 197.337 339.638 196.662 338.785C195.847 337.743 195.218 336.567 194.806 335.31C194.327 333.875 194.079 332.373 194.07 330.861C194.006 329.139 194.355 327.428 195.089 325.869C195.947 324.229 197.205 322.831 198.745 321.805C200.264 320.788 201.981 320.105 203.783 319.801C205.436 319.53 207.122 319.53 208.775 319.801C211.517 320.283 214.133 321.319 216.461 322.846C218 323.834 219.437 324.971 220.751 326.242C221.68 327.148 222.121 327.714 222.042 327.805C221.963 327.895 221.363 327.51 220.321 326.774C218.863 325.738 217.351 324.778 215.793 323.899C213.543 322.621 211.075 321.773 208.514 321.397C207.036 321.196 205.535 321.227 204.066 321.488C202.51 321.769 201.029 322.37 199.719 323.254C198.419 324.118 197.348 325.283 196.594 326.65C195.973 327.962 195.659 329.398 195.678 330.85C195.643 332.2 195.815 333.547 196.187 334.846C196.5 335.977 196.993 337.051 197.647 338.027C198.2 338.829 198.858 339.552 199.606 340.177C200.186 340.652 200.803 341.08 201.451 341.456C201.983 341.773 202.447 341.943 202.73 342.124C203.013 342.305 203.205 342.453 203.183 342.509Z" fill="black"/>
<path d="M198.677 377.896C198.677 377.963 198.485 377.952 198.145 377.896C197.647 377.81 197.158 377.677 196.685 377.499C195.925 377.211 195.203 376.831 194.534 376.367C193.634 375.762 192.832 375.021 192.157 374.171C191.35 373.124 190.722 371.949 190.301 370.696C189.833 369.255 189.584 367.751 189.565 366.236C189.501 364.514 189.851 362.803 190.584 361.244C191.453 359.611 192.713 358.219 194.251 357.191C195.764 356.169 197.478 355.482 199.277 355.176C200.93 354.904 202.616 354.904 204.269 355.176C207.014 355.651 209.631 356.688 211.956 358.221C213.498 359.209 214.939 360.347 216.257 361.617C217.174 362.523 217.616 363.089 217.536 363.18C217.457 363.27 216.857 362.874 215.816 362.149C214.361 361.108 212.849 360.148 211.288 359.274C209.034 357.992 206.562 357.14 203.998 356.761C202.519 356.56 201.018 356.591 199.549 356.852C197.993 357.132 196.513 357.734 195.202 358.618C193.903 359.479 192.834 360.645 192.089 362.014C191.461 363.323 191.143 364.761 191.161 366.213C191.139 367.567 191.31 368.916 191.67 370.221C191.989 371.35 192.482 372.423 193.131 373.402C193.684 374.203 194.347 374.924 195.1 375.541C195.675 376.022 196.293 376.45 196.945 376.82C197.477 377.148 197.93 377.318 198.225 377.499C198.519 377.681 198.7 377.839 198.677 377.896Z" fill="black"/>
</g>
<path d="M475.147 131.596L473.071 147.912L500.392 151.388L502.468 135.072L475.147 131.596Z" fill="#E04237"/>
<path d="M453.672 143.889C453.521 143.904 453.369 143.904 453.219 143.889L451.894 143.764L446.823 143.153L428.156 140.776L366.632 132.704L349.097 130.372C343.437 129.625 337.97 128.856 332.774 128.222C327.866 127.532 322.889 127.479 317.967 128.063C313.383 128.708 309.047 129.693 305.017 129.195C303.113 128.98 301.265 128.408 299.572 127.508C297.976 126.671 296.584 125.709 295.248 124.882C294.03 124.081 292.737 123.399 291.388 122.845C290.245 122.424 289.04 122.198 287.822 122.177C286.122 122.089 284.448 122.634 283.125 123.705C282.695 124.107 282.315 124.56 281.993 125.052C282.05 124.909 282.122 124.773 282.208 124.645C282.296 124.479 282.403 124.323 282.525 124.18C282.68 123.972 282.858 123.782 283.057 123.614C284.379 122.472 286.088 121.877 287.834 121.95C289.083 121.954 290.323 122.168 291.501 122.584C292.877 123.102 294.2 123.751 295.452 124.52C296.799 125.346 298.203 126.286 299.776 127.101C301.436 127.959 303.24 128.504 305.097 128.708C309.036 129.15 313.315 128.165 317.934 127.486C322.894 126.87 327.913 126.904 332.865 127.588C338.094 128.21 343.539 128.98 349.211 129.705L366.745 131.969L428.247 140.21L446.88 142.779L451.951 143.504L453.264 143.707C453.406 143.752 453.543 143.813 453.672 143.889Z" fill="#263238"/>
<path d="M448.883 160.359H448.464L447.231 160.223L442.476 159.68L425.032 157.552L367.492 150.33L309.964 142.926L292.543 140.662L287.811 139.994L286.577 139.813C286.436 139.798 286.296 139.771 286.158 139.734C286.301 139.714 286.446 139.714 286.588 139.734L287.822 139.859L292.565 140.402L310.021 142.53L367.572 149.764L425.089 157.167L442.51 159.431L447.242 160.087L448.476 160.269C448.615 160.28 448.752 160.31 448.883 160.359Z" fill="#263238"/>
<path d="M429.549 255.402H429.152L428.02 255.277L423.492 254.757L406.909 252.742L352.222 245.882L297.501 238.852L280.94 236.588L276.412 235.965L275.28 235.784L274.884 235.705C275.015 235.692 275.148 235.692 275.28 235.705L276.412 235.818L280.94 236.339L297.524 238.354L352.222 245.225L406.897 252.266L423.459 254.462L427.987 255.096L429.119 255.266C429.269 255.287 429.414 255.333 429.549 255.402Z" fill="#263238"/>
<path d="M425.462 287.528H425.066L423.934 287.415L419.406 286.894L402.822 284.879L348.124 278.008L293.448 270.967L276.887 268.771L272.359 268.137L271.227 267.967L270.831 267.888C270.966 267.871 271.103 267.871 271.239 267.888L272.371 268.012L276.899 268.533L293.471 270.548L348.169 277.419L402.833 284.449L419.406 286.713L423.934 287.336L425.066 287.517C425.198 287.509 425.331 287.513 425.462 287.528Z" fill="#263238"/>
<path d="M424.33 270.74C424.198 270.753 424.066 270.753 423.934 270.74L422.802 270.627L418.387 270.118L402.143 268.148L348.588 261.424L295.056 254.53L278.834 252.368L274.431 251.757L273.299 251.587L272.914 251.508C273.045 251.49 273.179 251.49 273.31 251.508L274.442 251.632L278.868 252.13L295.101 254.1L348.656 260.813L402.188 267.718L418.399 269.869L422.802 270.48L423.934 270.661L424.33 270.74Z" fill="#263238"/>
<path d="M338.468 291.048C338.231 291.076 337.992 291.076 337.755 291.048L335.729 290.845L328.269 289.984L303.704 286.951L279.163 283.736L271.725 282.706L269.71 282.389C269.472 282.365 269.236 282.316 269.008 282.242C269.245 282.212 269.485 282.212 269.722 282.242L271.759 282.445L279.208 283.294L303.738 286.396L328.28 289.554L335.717 290.596L337.732 290.901C337.983 290.92 338.23 290.969 338.468 291.048Z" fill="#263238"/>
<path d="M306.976 156.703C306.976 156.861 301.123 156.25 293.958 155.344C286.792 154.439 281.008 153.556 281.03 153.397C281.053 153.239 286.871 153.839 294.037 154.756C301.203 155.673 306.987 156.533 306.976 156.703Z" fill="#263238"/>
<path d="M431.79 237.811C431.659 237.828 431.525 237.828 431.394 237.811L430.262 237.697C429.266 237.584 427.794 237.426 425.904 237.267C424.013 237.109 421.681 236.928 418.987 236.769C416.293 236.611 413.214 236.452 409.807 236.305C403.015 235.999 394.898 235.796 385.91 235.264C381.382 234.992 376.696 234.652 371.817 234.018C366.938 233.384 361.957 232.558 356.818 231.754L304.202 223.706L288.264 221.193L283.94 220.48L282.808 220.276C282.679 220.264 282.553 220.234 282.434 220.185H282.819L283.951 220.332L288.298 220.932L304.248 223.264L356.886 231.188C362.025 231.947 367.074 232.751 371.885 233.452C376.696 234.154 381.439 234.437 385.933 234.72C394.91 235.275 403.015 235.535 409.818 235.852C413.214 236.033 416.293 236.203 418.998 236.407C421.704 236.611 424.013 236.803 425.915 237.007C427.817 237.211 429.311 237.392 430.273 237.55L431.405 237.72C431.535 237.742 431.664 237.773 431.79 237.811Z" fill="#263238"/>
<path d="M142.632 334.438C142.632 334.438 281.155 197.466 296.912 175.766L287.426 167.049L131.21 322.405L142.632 334.438Z" fill="#E0E0E0"/>
<path d="M100.42 363.372C106.657 363.485 123.501 361.108 147.217 336.611L168.147 317.73L152.141 302.244C152.141 302.244 184.052 272.676 182.535 271.057C181.018 269.439 164.038 285.264 150.635 296.822C138.444 307.383 97.7482 344.603 96.7973 359.376C96.7604 359.879 96.826 360.384 96.9901 360.861C97.1543 361.338 97.4136 361.777 97.7523 362.15C98.091 362.524 98.5021 362.825 98.9606 363.035C99.4192 363.245 99.9156 363.36 100.42 363.372Z" fill="#E04237"/>
<path opacity="0.2" d="M182.535 271.091C181.007 269.473 164.038 285.219 150.635 296.822C149.583 297.739 148.292 298.859 146.854 300.15L162.759 315.387L141.862 334.314C120.354 356.569 104.506 360.633 97.1256 361.119C97.4016 361.772 97.8583 362.331 98.442 362.732C99.0257 363.134 99.7119 363.359 100.42 363.383C106.657 363.497 123.501 361.119 147.217 336.623L168.147 317.741L152.141 302.244C152.141 302.244 184.052 272.71 182.535 271.091Z" fill="black"/>
<path d="M170.366 298.44L279.547 188.704L274.929 184.448L165.929 293.754L170.366 298.44Z" fill="#263238"/>
<path d="M296.833 175.913C296.833 175.913 307.191 159.601 304.293 158.74C301.395 157.88 287.449 167.049 287.449 167.049L290.12 169.8L274.272 185.059L279.604 188.704L294.026 173.479L296.833 175.913Z" fill="#455A64"/>
<path d="M190.425 250.172C191.79 250.275 193.161 250.102 194.458 249.663C195.754 249.224 196.949 248.529 197.971 247.618C198.992 246.707 199.82 245.6 200.404 244.362C200.989 243.125 201.318 241.782 201.371 240.414C201.587 234.867 201.779 229.264 201.779 229.264C201.779 229.264 210.178 228.483 210.778 220.208C211.378 211.933 211.118 192.712 211.118 192.712C206.514 190.389 201.372 189.338 196.226 189.668C191.079 189.999 186.114 191.698 181.844 194.591L180.554 195.462L181.018 240.176C181.059 242.715 182.046 245.147 183.786 246.996C185.526 248.845 187.894 249.978 190.425 250.172Z" fill="#FFBE9D"/>
<path d="M190.04 181.844C184.98 181.697 180.396 185.003 178.041 189.067C175.686 193.131 175.188 197.851 174.973 202.436C174.704 211.444 174.915 220.46 175.607 229.445C175.575 230.127 175.779 230.798 176.185 231.347C176.806 231.855 177.578 232.146 178.381 232.173C193.743 234.29 209.322 234.313 224.691 232.241C225.698 230.407 224.272 228.234 222.642 226.83C221.012 225.426 218.974 224.147 218.385 222.166C217.446 219.053 220.536 215.725 219.336 212.691C218.431 210.427 215.431 209.295 214.378 207.031C212.612 203.296 217.174 198.779 215.148 195.145C214.095 193.255 211.627 192.417 210.065 190.844C208.684 189.452 208.096 187.561 206.907 186.033C204.774 183.648 201.791 182.193 198.598 181.98C195.768 181.519 192.887 181.458 190.04 181.799" fill="#E04237"/>
<path d="M178.188 191.308C176.049 192.349 175.12 194.919 174.792 197.285C174.464 199.651 174.566 202.141 173.581 204.315C172.596 206.488 170.332 208.413 169.755 210.892C169.008 214.129 171.136 217.933 169.211 220.638C167.977 222.37 165.544 222.812 164.015 224.306C161.91 226.377 162.091 229.762 162.431 232.705L190.187 232.456" fill="#E04237"/>
<path d="M184.312 186.938C184.06 185.588 183.483 184.319 182.631 183.241C181.78 182.164 180.678 181.309 179.422 180.752C178.167 180.195 176.794 179.952 175.424 180.044C174.053 180.135 172.725 180.559 171.555 181.278C167.128 184.018 165.555 190.55 160.574 192.066C159.272 192.463 157.676 192.576 156.986 193.753C156.295 194.93 157.167 196.628 158.435 197.24C159.771 197.729 161.216 197.842 162.612 197.568C162.205 197.526 161.794 197.578 161.41 197.721C161.027 197.864 160.682 198.093 160.401 198.391C160.121 198.689 159.913 199.047 159.794 199.439C159.675 199.83 159.647 200.243 159.714 200.647C159.94 201.451 160.453 202.143 161.157 202.592C161.861 203.041 162.705 203.215 163.529 203.081C164.349 202.907 165.107 202.517 165.726 201.952C166.345 201.387 166.802 200.667 167.049 199.866C166.438 201.609 165.834 203.352 165.238 205.096C168.691 205.707 171.634 202.594 173.377 199.56C175.12 196.527 176.773 192.972 179.954 191.636C181.392 191.036 183.056 190.923 184.29 189.972C185.523 189.021 185.773 186.644 184.29 186.191" fill="#E04237"/>
<path d="M185.75 187.04C185.75 187.04 186.395 187.289 186.961 188.172C187.34 188.77 187.574 189.449 187.644 190.154C187.713 190.859 187.616 191.57 187.361 192.231C187.105 192.891 186.698 193.483 186.173 193.957C185.647 194.432 185.018 194.777 184.335 194.964C183.795 195.168 183.199 195.168 182.66 194.964C182.66 194.862 183.293 194.896 184.199 194.534C184.788 194.324 185.325 193.99 185.774 193.554C186.223 193.118 186.573 192.591 186.801 192.008C187.028 191.425 187.128 190.8 187.093 190.176C187.058 189.551 186.89 188.941 186.599 188.387C186.18 187.527 185.648 187.12 185.75 187.04Z" fill="#263238"/>
<path d="M215.85 450.83L230.079 516.452L248.848 516.022L240.527 445.023L215.85 450.83Z" fill="#FFBE9D"/>
<path d="M148.915 267.967C148.915 267.967 148.598 268.431 148.077 269.258C145.066 274.046 136.576 291.218 143.73 302.708L161.684 286.928L164.706 279.842" fill="#FFBE9D"/>
<path d="M159.261 397.83L153.216 509.887L171.69 514.347L185.546 400.196L159.261 397.83Z" fill="#FFBE9D"/>
<path d="M240.867 256.964L214.831 263.247L213.325 283.34L216.948 294.795C216.948 295.203 222.812 314.47 222.812 314.47L224.634 320.843L165.114 321.465C164.91 314.504 169.54 307.644 169.54 307.644C172.936 301.904 172.053 293.233 170.479 286.656C169.981 284.573 169.347 281.132 169.053 279.015V278.642L165.657 284.63L144.896 269.688C151.609 256.738 161.457 243.652 162.646 242.678C166.949 239.079 172.364 237.079 177.973 237.018L203.669 237.245C203.669 237.245 223.898 234.709 235.694 232.717L240.867 256.964Z" fill="#455A64"/>
<path d="M236.237 235.637C235.279 236.18 234.38 236.821 233.554 237.55C232.751 238.252 231.856 239.203 230.826 240.312C229.675 241.614 228.397 242.797 227.011 243.844C223.35 246.552 218.998 248.173 214.457 248.519C211.793 248.72 209.113 248.468 206.533 247.772C203.851 247.036 201.236 245.848 198.462 245.055C197.1 244.652 195.693 244.416 194.274 244.354C192.9 244.343 191.531 244.507 190.199 244.84C187.669 245.56 185.219 246.534 182.886 247.75C180.75 248.855 178.546 249.823 176.286 250.647C173.848 251.515 171.261 251.882 168.678 251.726C166.095 251.571 163.57 250.896 161.253 249.742C160.514 249.372 159.803 248.948 159.125 248.474C158.884 248.316 158.657 248.138 158.446 247.942C158.446 247.885 159.42 248.632 161.355 249.527C163.651 250.61 166.14 251.225 168.676 251.338C171.212 251.451 173.745 251.058 176.128 250.183C178.36 249.346 180.538 248.371 182.648 247.263C185.006 246.013 187.487 245.011 190.051 244.274C191.439 243.924 192.866 243.757 194.296 243.776C195.762 243.828 197.216 244.068 198.621 244.489C201.462 245.293 204.066 246.493 206.692 247.217C209.219 247.905 211.845 248.162 214.457 247.976C218.909 247.659 223.185 246.111 226.808 243.505C228.186 242.499 229.464 241.362 230.622 240.109C231.516 239.16 232.457 238.257 233.441 237.403C234.075 236.867 234.762 236.397 235.49 235.999C235.681 235.897 235.877 235.807 236.079 235.728C236.184 235.66 236.237 235.63 236.237 235.637Z" fill="#263238"/>
<path d="M213.518 269.416C213.374 269.61 213.197 269.779 212.997 269.914C212.441 270.335 211.793 270.618 211.107 270.74C210.017 270.931 208.899 270.873 207.835 270.571C206.442 270.159 205.126 269.52 203.941 268.68C202.547 267.667 201.075 266.766 199.538 265.986C197.754 265.215 195.819 264.859 193.878 264.945C189.701 265.08 185.365 266.835 180.928 268.748C178.752 269.706 176.503 270.49 174.203 271.091C172.039 271.672 169.784 271.834 167.559 271.567C165.54 271.29 163.607 270.571 161.899 269.461C160.414 268.513 159.063 267.371 157.88 266.065C156.199 264.184 154.709 262.14 153.431 259.964C152.978 259.205 152.628 258.605 152.401 258.198C152.276 257.991 152.166 257.775 152.073 257.553C152.24 257.726 152.384 257.92 152.503 258.13L153.635 259.839C154.968 261.949 156.483 263.937 158.163 265.782C159.344 267.025 160.675 268.117 162.125 269.031C163.789 270.074 165.657 270.745 167.604 271.001C169.759 271.245 171.94 271.08 174.034 270.514C176.3 269.904 178.517 269.124 180.667 268.182C185.093 266.28 189.519 264.492 193.832 264.39C195.867 264.299 197.895 264.687 199.753 265.522C201.298 266.334 202.778 267.265 204.179 268.307C205.32 269.146 206.589 269.796 207.937 270.231C208.951 270.547 210.021 270.636 211.073 270.491C211.967 270.35 212.809 269.979 213.518 269.416Z" fill="#263238"/>
<path d="M214.389 288.66C214.389 288.66 214.31 288.796 214.095 289.022C213.793 289.356 213.455 289.656 213.088 289.917C211.701 290.848 210.1 291.413 208.435 291.558C205.974 291.761 203.497 291.425 201.179 290.573C198.553 289.679 195.87 288.252 192.972 287.075C190.279 285.89 187.355 285.322 184.414 285.411C182.017 285.536 179.664 286.104 177.475 287.087C175.47 288.047 173.614 289.29 171.962 290.777C171.962 290.777 172.041 290.63 172.245 290.403C172.541 290.066 172.859 289.749 173.196 289.452C174.427 288.352 175.806 287.429 177.294 286.713C179.518 285.645 181.929 285.022 184.391 284.879C187.412 284.742 190.423 285.307 193.187 286.532C196.142 287.732 198.847 289.158 201.36 290.064C203.601 290.914 205.997 291.281 208.39 291.139C209.991 291.036 211.543 290.551 212.918 289.724C213.948 289.101 214.344 288.66 214.389 288.66Z" fill="#263238"/>
<path d="M220.74 307.157C220.74 307.157 220.14 306.738 218.974 306.138C217.313 305.34 215.515 304.864 213.676 304.734C210.94 304.556 208.194 304.855 205.56 305.617C202.571 306.41 199.39 307.689 195.949 308.776C192.707 309.863 189.305 310.399 185.886 310.36C183.115 310.315 180.366 309.869 177.724 309.036C175.932 308.466 174.205 307.707 172.573 306.772C171.996 306.455 171.566 306.172 171.283 305.98C171.127 305.888 170.982 305.778 170.853 305.651C170.853 305.651 171.509 305.991 172.687 306.568C176.797 308.653 181.334 309.76 185.942 309.806C189.298 309.811 192.633 309.269 195.813 308.198C199.209 307.123 202.424 305.855 205.469 305.074C208.164 304.326 210.97 304.065 213.756 304.304C215.637 304.468 217.463 305.019 219.121 305.923C219.567 306.173 219.992 306.461 220.389 306.783C220.638 307.01 220.74 307.134 220.74 307.157Z" fill="#263238"/>
<path d="M165.204 319.19L153.794 450.038L181.992 450.196L195.915 345.339L214.106 451.147L242.316 445.94L225.019 320.288L165.204 319.19Z" fill="#263238"/>
<path d="M216.11 341.864C216.11 342.034 206.465 343.313 194.523 344.728C182.58 346.143 172.89 347.162 172.868 346.992C172.845 346.822 182.512 345.554 194.455 344.139C206.398 342.724 216.088 341.751 216.11 341.864Z" fill="#455A64"/>
<path d="M251.406 517.935L251.327 515.841L230.079 516.452L230.26 523.38H231.573C237.426 523.527 261.322 523.731 265.194 522.531C269.507 521.218 251.406 517.935 251.406 517.935Z" fill="#E04237"/>
<g opacity="0.6">
<path d="M237.924 522.984C237.539 521.301 236.527 519.827 235.094 518.864C233.635 517.856 231.867 517.395 230.102 517.562L230.271 523.063L237.924 522.984Z" fill="white"/>
</g>
<g opacity="0.6">
<path d="M260.258 519.837C260.258 519.837 266.609 521.354 265.918 522.339C265.228 523.324 241.014 523.958 230.317 523.38V522.939L258.504 522.418C258.504 522.418 259.024 519.916 260.258 519.837Z" fill="white"/>
</g>
<path d="M229.943 522.984H230.317H231.358L235.207 523.041C238.456 523.041 242.95 523.041 247.919 522.916C252.889 522.792 257.36 522.576 260.609 522.395L264.447 522.146L265.488 522.056H264.447L260.598 522.226C257.349 522.373 252.866 522.554 247.908 522.678C242.95 522.803 238.456 522.848 235.207 522.871H231.358H230.317L229.943 522.984Z" fill="#263238"/>
<path d="M258.47 522.724C258.622 522.125 258.847 521.548 259.137 521.003C259.485 520.483 259.896 520.007 260.36 519.588C259.72 519.814 259.187 520.27 258.866 520.867C258.68 521.135 258.55 521.437 258.482 521.756C258.414 522.074 258.41 522.403 258.47 522.724Z" fill="#263238"/>
<path d="M252.142 519.939C252.142 519.939 252.493 519.633 252.787 519.169C253.081 518.705 253.262 518.309 253.206 518.275C253.149 518.241 252.855 518.592 252.561 519.045C252.266 519.497 252.074 519.905 252.142 519.939Z" fill="#263238"/>
<path d="M250.398 519.147C250.398 519.147 250.772 518.977 251.134 518.66C251.496 518.343 251.734 518.06 251.689 518.003C251.644 517.947 251.304 518.173 250.953 518.49C250.602 518.807 250.353 519.101 250.398 519.147Z" fill="#263238"/>
<path d="M249.255 517.324C249.62 517.441 250.007 517.476 250.387 517.426C250.77 517.468 251.157 517.422 251.519 517.29C251.154 517.173 250.767 517.138 250.387 517.188C250.005 517.16 249.62 517.206 249.255 517.324Z" fill="#263238"/>
<path d="M248.848 516.022C249.641 516.377 250.541 516.413 251.361 516.124C250.942 516.09 250.522 516.09 250.104 516.124C249.689 516.054 249.269 516.02 248.848 516.022Z" fill="#263238"/>
<path d="M252.798 518.207C253.252 518.275 253.714 518.275 254.168 518.207C254.656 518.138 255.136 518.028 255.606 517.879C255.887 517.791 256.16 517.677 256.421 517.539C256.576 517.447 256.692 517.303 256.749 517.132C256.765 517.035 256.753 516.937 256.712 516.848C256.672 516.759 256.606 516.684 256.523 516.633C255.998 516.41 255.415 516.363 254.862 516.5C254.308 516.636 253.815 516.95 253.455 517.392C253.26 517.647 253.121 517.94 253.047 518.252C253.017 518.363 253.017 518.481 253.047 518.592C253.178 518.184 253.377 517.801 253.636 517.46C253.937 517.113 254.329 516.858 254.768 516.724C255.297 516.546 255.874 516.57 256.387 516.792C256.613 516.928 256.534 517.165 256.296 517.313C256.055 517.443 255.8 517.55 255.538 517.63C255.087 517.791 254.626 517.919 254.157 518.014C253.319 518.15 252.798 518.173 252.798 518.207Z" fill="#263238"/>
<path d="M253.16 518.264C253.309 517.994 253.353 517.68 253.285 517.381C253.238 517.045 253.101 516.728 252.889 516.464C252.765 516.277 252.596 516.123 252.399 516.017C252.202 515.91 251.981 515.854 251.757 515.852C251.692 515.865 251.63 515.89 251.575 515.926C251.52 515.962 251.472 516.009 251.436 516.064C251.399 516.119 251.373 516.18 251.36 516.245C251.347 516.31 251.347 516.376 251.361 516.441C251.402 516.646 251.487 516.839 251.61 517.007C251.796 517.283 252.017 517.534 252.266 517.754C252.491 517.979 252.766 518.146 253.07 518.241C253.07 518.241 252.787 518.026 252.402 517.63C252.178 517.408 251.981 517.161 251.813 516.894C251.61 516.622 251.474 516.147 251.813 516.079C251.993 516.095 252.167 516.15 252.323 516.24C252.48 516.33 252.615 516.452 252.719 516.599C252.921 516.833 253.061 517.113 253.127 517.415C253.166 517.696 253.178 517.98 253.16 518.264Z" fill="#263238"/>
<path d="M230.215 517.539C230.215 517.539 230.826 517.471 231.777 517.539C233.014 517.634 234.204 518.052 235.23 518.75C236.228 519.436 237.013 520.389 237.494 521.501C237.666 521.957 237.813 522.422 237.935 522.893C237.935 522.893 237.935 522.746 237.935 522.497C237.894 522.137 237.806 521.783 237.675 521.444C237.233 520.273 236.443 519.266 235.411 518.558C234.345 517.834 233.098 517.422 231.811 517.369C231.433 517.35 231.053 517.369 230.679 517.426C230.519 517.439 230.363 517.478 230.215 517.539Z" fill="#263238"/>
<path d="M240.527 521.026C241.549 521.222 242.591 521.291 243.629 521.229C244.668 521.251 245.705 521.148 246.719 520.924C246.719 520.845 245.327 520.924 243.629 520.992C241.931 521.06 240.539 520.958 240.527 521.026Z" fill="#263238"/>
<path d="M236.384 521.128C236.384 521.184 236.509 521.399 236.656 521.694C236.803 521.988 236.894 522.237 236.962 522.237C237.03 522.237 237.063 521.92 236.882 521.58C236.701 521.241 236.43 521.082 236.384 521.128Z" fill="#263238"/>
<path d="M234.766 519.362C234.766 519.362 234.856 519.611 235.082 519.814C235.309 520.018 235.535 520.131 235.581 520.086C235.626 520.041 235.49 519.837 235.264 519.645C235.037 519.452 234.811 519.316 234.766 519.362Z" fill="#263238"/>
<path d="M232.502 518.592C232.502 518.66 232.807 518.648 233.113 518.75C233.418 518.852 233.656 518.988 233.713 518.943C233.769 518.897 233.588 518.626 233.192 518.513C232.796 518.399 232.479 518.535 232.502 518.592Z" fill="#263238"/>
<path d="M230.928 518.252C230.928 518.309 231.03 518.411 231.2 518.467C231.369 518.524 231.539 518.524 231.562 518.467C231.585 518.411 231.471 518.309 231.29 518.252C231.109 518.196 230.928 518.184 230.928 518.252Z" fill="#263238"/>
<path d="M152.673 508.925L149.526 522.758H170.785L171.69 513.747L152.673 508.925Z" fill="#E04237"/>
<path d="M171.215 520.72C170.194 520.886 169.158 520.943 168.125 520.89C166.212 520.89 163.597 520.89 160.653 520.754L153.194 520.437C152.158 520.451 151.123 520.368 150.103 520.188C151.125 520.03 152.161 519.977 153.194 520.03C155.107 520.03 157.722 520.03 160.676 520.165L168.125 520.482C169.16 520.461 170.195 520.541 171.215 520.72Z" fill="#263238"/>
<path d="M162.216 511.664C162.413 513.167 162.413 514.689 162.216 516.192C162.208 517.69 162.01 519.181 161.627 520.629C161.419 519.127 161.419 517.604 161.627 516.101C161.626 514.603 161.824 513.111 162.216 511.664Z" fill="#263238"/>
<path opacity="0.6" d="M149.526 522.758H170.785L170.989 520.754L149.911 520.222L149.526 522.52" fill="white"/>
<path d="M285.592 189.044L277.838 191.84C277.736 188.738 275.574 185.501 275.574 187.052C275.574 188.603 274.838 196.628 274.838 196.628L258.673 224.759C256.409 229.287 252.368 231.856 249.459 232.32L236.192 235.15L239.984 252.662L258.47 248.134C260.835 247.552 263.031 246.424 264.881 244.839C266.731 243.255 268.183 241.258 269.122 239.01L284.494 202.141C285.515 199.77 286.381 197.335 287.087 194.851C287.269 193.833 287.229 192.787 286.972 191.785C286.714 190.783 286.243 189.848 285.592 189.044Z" fill="#FFBE9D"/>
</svg>
