<svg width="14" height="14" viewBox="0 0 14 14" fill="none" xmlns="http://www.w3.org/2000/svg">
<path fill-rule="evenodd" clip-rule="evenodd" d="M2.0999 2.10001C1.91425 2.10001 1.7362 2.17376 1.60493 2.30503C1.47365 2.43631 1.3999 2.61435 1.3999 2.80001V11.2C1.3999 11.3857 1.47365 11.5637 1.60493 11.695C1.7362 11.8263 1.91425 11.9 2.0999 11.9C2.28555 11.9 2.4636 11.8263 2.59488 11.695C2.72615 11.5637 2.7999 11.3857 2.7999 11.2V2.80001C2.7999 2.61435 2.72615 2.43631 2.59488 2.30503C2.4636 2.17376 2.28555 2.10001 2.0999 2.10001ZM9.305 8.60511C9.17749 8.73713 9.10694 8.91395 9.10853 9.09749C9.11013 9.28102 9.18374 9.45659 9.31353 9.58638C9.44331 9.71616 9.61888 9.78978 9.80242 9.79138C9.98596 9.79297 10.1628 9.72242 10.2948 9.59491L12.3948 7.49491C12.526 7.36364 12.5998 7.18562 12.5998 7.00001C12.5998 6.81439 12.526 6.63638 12.3948 6.50511L10.2948 4.40511C10.2302 4.33825 10.153 4.28492 10.0676 4.24824C9.98218 4.21155 9.89033 4.19224 9.79738 4.19143C9.70444 4.19062 9.61226 4.20833 9.52623 4.24353C9.44021 4.27873 9.36205 4.3307 9.29633 4.39643C9.2306 4.46215 9.17862 4.54031 9.14343 4.62634C9.10823 4.71237 9.09052 4.80454 9.09133 4.89749C9.09213 4.99043 9.11144 5.08229 9.14813 5.16769C9.18482 5.25309 9.23815 5.33033 9.305 5.39491L10.2101 6.30001H4.8999C4.71425 6.30001 4.5362 6.37376 4.40493 6.50503C4.27365 6.63631 4.1999 6.81435 4.1999 7.00001C4.1999 7.18566 4.27365 7.36371 4.40493 7.49498C4.5362 7.62626 4.71425 7.70001 4.8999 7.70001H10.2101L9.305 8.60511Z" fill="#E04237"/>
</svg>
