<svg width="42" height="46" viewBox="0 0 42 46" fill="none" xmlns="http://www.w3.org/2000/svg">
<g clip-path="url(#clip0_5_295)">
<path d="M29.1266 6.38961C26.495 4.99854 23.3652 5.49474 21.2992 7.40705L18.9383 6.15908C16.7159 4.98432 13.954 5.83605 12.7792 8.05841L2.12987 28.2044C0.955112 30.4268 1.80685 33.1888 4.0292 34.3635L20.146 42.883C22.3684 44.0578 25.1303 43.206 26.3051 40.9837L36.9545 20.8376C38.1292 18.6153 37.2775 15.8533 35.0551 14.6786L32.6943 13.4306C33.1109 10.6464 31.7582 7.78069 29.1266 6.38961ZM26.9967 10.4188C27.531 10.7013 27.9312 11.1844 28.1093 11.7619C28.2874 12.3394 28.2288 12.9641 27.9464 13.4984C27.6639 14.0327 27.1808 14.4329 26.6033 14.611C26.0258 14.7891 25.4011 14.7305 24.8668 14.448C24.3325 14.1656 23.9323 13.6825 23.7542 13.1049C23.5761 12.5274 23.6347 11.9028 23.9172 11.3685C24.1996 10.8342 24.6827 10.434 25.2603 10.2559C25.8378 10.0778 26.4624 10.1364 26.9967 10.4188ZM17.7005 15.8149L27.7735 21.1396C28.3275 21.4324 28.5412 22.1253 28.2483 22.6793C27.9555 23.2334 27.2626 23.447 26.7085 23.1542L16.6355 17.8295C16.0815 17.5366 15.8678 16.8437 16.1607 16.2897C16.4536 15.7357 17.1464 15.522 17.7005 15.8149Z" fill="#DAA842"/>
</g>
<defs>
<clipPath id="clip0_5_295">
<rect width="27.345" height="36.46" fill="white" transform="translate(17.039) rotate(27.8613)"/>
</clipPath>
</defs>
</svg>
